<?xml version="1.0" encoding="utf-8"?>
<!-- Generator: Adobe Illustrator 17.0.0, SVG Export Plug-In . SVG Version: 6.00 Build 0)  -->
<!DOCTYPE svg PUBLIC "-//W3C//DTD SVG 1.1//EN" "http://www.w3.org/Graphics/SVG/1.1/DTD/svg11.dtd">
<svg version="1.1" id="Layer_1" xmlns="http://www.w3.org/2000/svg" xmlns:xlink="http://www.w3.org/1999/xlink" x="0px" y="0px"
	 width="512px" height="512px" viewBox="0 0 512 512" enable-background="new 0 0 512 512" xml:space="preserve">
<g>
	<g>
		<g>
			<g>
				<g>
					<path fill="#A2D4DE" d="M2.464,256.003C2.464,115.97,115.977,2.465,256.002,2.465c140.018,0,253.53,113.504,253.53,253.537
						c0,140.018-113.512,253.53-253.53,253.53C115.977,509.533,2.464,396.02,2.464,256.003z"/>
				</g>
			</g>
		</g>
	</g>
	<g>
		<g>
			<g>
				<g>
					<path fill="#6CC077" d="M435.277,76.727c99.008,99.009,99.016,259.535-0.008,358.551c-99.001,99.009-259.535,99.009-358.543,0
						L435.277,76.727z"/>
				</g>
			</g>
		</g>
	</g>
	<g>
		<g>
			<path fill="#FFFFFF" d="M479.703,136.658c-1.939-3.628-3.956-7.201-6.067-10.711C238.91,217.394,135.25,437.663,120.918,470.509
				c3.464,2.189,6.974,4.285,10.547,6.31C142.256,451.619,243.86,227.676,479.703,136.658z"/>
		</g>
	</g>
	<g>
		<g>
			<g>
				<path fill="#CC3432" d="M256.737,88.401c-61.729,0-111.768,50.04-111.768,111.753c0,81.291,105.474,189.987,114.959,189.987
					c9.484,0,108.547-118.274,108.547-189.987C368.474,138.441,318.45,88.401,256.737,88.401z M256.197,237.512
					c-24.23,0-43.855-19.093-43.855-42.667s19.625-42.682,43.855-42.682c24.222,0,43.855,19.109,43.855,42.682
					S280.42,237.512,256.197,237.512z"/>
			</g>
			<g>
				<path fill="#BA2E2D" d="M259.927,392.142c-9.868,0-116.96-109.853-116.96-191.989c0-62.722,51.041-113.754,113.77-113.754
					c62.714,0,113.739,51.033,113.739,113.754C370.476,271.468,270.834,392.142,259.927,392.142z M256.737,90.403
					c-60.524,0-109.767,49.234-109.767,109.751c0,81.588,103.66,186.015,112.941,187.969
					c9.484-2.447,106.561-116.874,106.561-187.969C366.473,139.637,317.246,90.403,256.737,90.403z M256.197,239.513
					c-25.286,0-45.856-20.04-45.856-44.668c0-24.645,20.571-44.684,45.856-44.684c25.286,0,45.857,20.039,45.857,44.684
					C302.054,219.474,281.483,239.513,256.197,239.513z M256.197,154.164c-23.073,0-41.853,18.249-41.853,40.681
					c0,22.424,18.781,40.665,41.853,40.665c23.081,0,41.854-18.241,41.854-40.665C298.051,172.413,279.279,154.164,256.197,154.164z
					"/>
			</g>
		</g>
	</g>
</g>
</svg>
